g Chicken_Raw1
v -10.265892 -14.796557 31.847162
v -16.50152 -14.796557 18.18809
v -23.762709 -11.707563 23.771029
v -16.713432 -11.707563 37.76705
v -5.554114 -14.796557 35.13996
v -8.232529 -11.707563 47.02465
v -8.872879 -14.796557 19.206484
v -0.077706814 -14.796557 40.837578
v -0.18535781 -11.707563 51.22898
v 5.58932 -14.796557 34.750404
v 8.380341 -11.707563 46.50225
v 8.915167 -14.796557 19.198
v -3.8146973E-06 -14.796557 18.940462
v 10.410641 -14.796557 31.092096
v 17.153744 -11.707563 37.221977
v 16.504004 -14.796557 18.171625
v 23.762691 -11.707563 23.771029
v 20.148619 -14.796557 6.1102467
v 28.770615 -11.707563 6.498949
v 31.42677 -11.707563 -8.8032055
v 22.217857 -14.796557 -9.218657
v 11.275727 -14.796557 6.337244
v 11.947704 -14.796557 -8.997236
v -8.4814696E-05 -14.796557 6.509142
v 8.21853E-05 -14.796557 -8.826765
v -11.231973 -14.796557 6.337244
v -11.901063 -14.796557 -8.997236
v -20.148615 -14.796557 6.1102314
v -22.217855 -14.796557 -9.218626
v -28.770613 -11.707563 6.498949
v -31.426777 -11.707563 -8.8032055
v -31.426777 -11.707563 -26.22898
v -22.217855 -14.796557 -21.122381
v -24.016125 -11.707563 -42.044
v -18.324879 -14.796557 -34.664917
v -12.742512 -11.707563 -49.257935
v -9.818042 -14.796557 -37.88452
v -11.950772 -14.796557 -21.908888
v -3.8146973E-06 -11.707563 -51.22898
v 0.064292185 -14.796557 -38.86966
v 12.170659 -11.707563 -50.253365
v 9.098206 -14.796557 -38.388885
v -3.8146973E-06 -14.796557 -21.445608
v 11.99747 -14.796557 -21.861578
v 24.631474 -11.707563 -41.128075
v 16.774008 -14.796557 -35.642563
v 31.42677 -11.707563 -26.22898
v 22.217857 -14.796557 -21.030676
v -16.713432 0.9630842 37.76705
v -23.762709 0.9630842 23.771029
v -17.08194 8.553346 18.875376
v -12.027061 8.553346 28.502695
v -8.232529 0.9630842 47.02465
v -5.7501907 8.553346 36.423164
v -9.185692 11.231624 19.929277
v -17.400644 -4.7368746 39.71955
v -8.602893 -4.7368746 49.18952
v -16.713432 -11.707563 37.76705
v -8.232529 -11.707563 47.02465
v -23.762709 -11.707563 23.771029
v -24.82909 -4.7368746 24.892946
v -0.18535781 -11.707563 51.22898
v -0.18535781 -4.7368746 53.4728
v 8.380341 -11.707563 46.50225
v 8.755498 -4.7368746 48.6437
v -0.18535781 0.9630842 51.22898
v 8.380341 0.9630842 46.50225
v -0.08043981 8.553346 42.157234
v 5.7851954 8.553346 36.019936
v -3.8146973E-06 13.909904 19.654207
v 9.22803 11.231624 19.920488
v 17.849854 -4.7368746 39.129036
v 17.153744 -11.707563 37.221977
v 24.829082 -4.7368746 24.892946
v 23.762691 -11.707563 23.771029
v 23.762691 0.9630842 23.771029
v 17.153744 0.9630842 37.221977
v 12.418912 8.553346 28.188578
v 17.084522 8.553346 18.858332
v 28.770657 0.9630842 6.498438
v 20.876389 8.557063 6.1011906
v 23.079485 8.481162 -9.224936
v 31.42677 0.9630842 -8.802694
v 30.090841 -4.7368746 6.4962864
v 32.8371 -4.7368746 -8.800528
v 12.362722 11.665542 -8.997793
v 11.654831 11.533252 6.3364353
v 28.770615 -11.707563 6.498949
v 31.42677 -11.707563 -8.8032055
v -0.0003678147 14.796557 -8.820555
v 0.0003281853 14.750506 6.5152607
v -12.31611 11.665803 -8.997793
v -11.611132 11.533767 6.3364506
v -23.079042 8.481555 -9.224936
v -20.87679 8.556672 6.1011753
v -31.426777 0.9630842 -8.802694
v -28.770666 0.9630852 6.498438
v -32.8371 -4.7368746 -8.800528
v -30.090845 -4.7368746 6.4962864
v -31.426777 -11.707563 -8.8032055
v -28.770613 -11.707563 6.498949
v -22.999334 8.553346 -21.817793
v -31.426777 0.9630842 -26.22898
v -16.710737 8.553346 -34.891624
v -24.016125 0.9630861 -42.044
v -8.946891 8.553346 -38.68228
v -12.742512 0.9630842 -49.257935
v -12.371947 11.231624 -22.632269
v -25.079107 -4.7368736 -43.97918
v -32.8371 -4.7368746 -27.35089
v -24.016125 -11.707563 -42.044
v -12.742512 -11.707563 -49.257935
v -13.3153925 -4.7368746 -51.41388
v -31.426777 -11.707563 -26.22898
v -3.8146973E-06 13.909904 -22.152388
v 0.06654619 8.553346 -40.1893
v 12.418646 11.231624 -22.583296
v 8.723295 8.553346 -39.513214
v -3.8146973E-06 0.9630842 -51.22898
v 12.170659 0.9630842 -50.253365
v -3.8146973E-06 -4.7368746 -53.4728
v 12.715795 -4.7368746 -52.453987
v -3.8146973E-06 -11.707563 -51.22898
v 12.170659 -11.707563 -50.253365
v 22.999334 8.553346 -21.722853
v 17.208668 8.553346 -33.39093
v 24.631474 0.9630842 -41.128075
v 31.42677 0.9630842 -26.22898
v 25.642956 -4.7368746 -43.14985
v 32.8371 -4.7368746 -27.35089
v 31.42677 -11.707563 -26.22898
v 24.631474 -11.707563 -41.128075
vt 0.120605 0.735126
vt 0.204358 0.69731
vt 0.168807 0.64919
vt 0.08191 0.693153
vt 0.100316 0.763854
vt 0.024976 0.746572
vt 0.197868 0.74404
vt 0.066181 0.797127
vt 0 0.797727
vt 0.102511 0.832038
vt 0.028498 0.850139
vt 0.197176 0.853253
vt 0.199156 0.798398
vt 0.124563 0.861667
vt 0.084826 0.905071
vt 0.203029 0.899652
vt 0.167054 0.946808
vt 0.276749 0.922683
vt 0.273129 0.97895
vt 0.367739 0.996057
vt 0.370791 0.93602
vt 0.275821 0.868258
vt 0.369817 0.872989
vt 0.275312 0.799032
vt 0.369286 0.799759
vt 0.276906 0.730162
vt 0.370927 0.726845
vt 0.278733 0.675457
vt 0.372934 0.663507
vt 0.276051 0.618898
vt 0.370966 0.603832
vt 0.478154 0.605652
vt 0.445829 0.664473
vt 0.574841 0.652093
vt 0.527751 0.689387
vt 0.619538 0.722135
vt 0.547245 0.74101
vt 0.449946 0.727368
vt 0.631515 0.801248
vt 0.553058 0.801422
vt 0.624899 0.876564
vt 0.549735 0.856695
vt 0.446532 0.800336
vt 0.448594 0.8737
vt 0.568285 0.953527
vt 0.532265 0.903322
vt 0.475941 0.996057
vt 0.443243 0.936306
vt 0.13741 0.40268
vt 0.212974 0.455404
vt 0.251326 0.402062
vt 0.199351 0.36983
vt 0.094663 0.352215
vt 0.159828 0.334438
vt 0.24824 0.354616
vt 0.107563 0.42412
vt 0.062452 0.36229
vt 0.07726 0.464238
vt 0.023312 0.388539
vt 0.170658 0.534288
vt 0.191686 0.486916
vt 0 0.321036
vt 0.049447 0.315046
vt 0 0.236148
vt 0.056115 0.257561
vt 0.079695 0.311239
vt 0.091464 0.26346
vt 0.133581 0.304628
vt 0.15914 0.272311
vt 0.251579 0.301326
vt 0.246726 0.248334
vt 0.095991 0.181753
vt 0.058521 0.138653
vt 0.180664 0.112625
vt 0.157529 0.062106
vt 0.204551 0.144958
vt 0.130507 0.202652
vt 0.197393 0.232398
vt 0.248292 0.200112
vt 0.315619 0.10498
vt 0.323463 0.17465
vt 0.414655 0.162853
vt 0.416295 0.093331
vt 0.308383 0.064195
vt 0.41858 0.054186
vt 0.41104 0.228001
vt 0.32338 0.231701
vt 0.294279 0.010986
vt 0.420361 0
vt 0.409184 0.299599
vt 0.323859 0.30041
vt 0.412038 0.370718
vt 0.324592 0.369163
vt 0.416431 0.435238
vt 0.325655 0.426326
vt 0.418372 0.50454
vt 0.319542 0.494104
vt 0.420125 0.54459
vt 0.312796 0.532775
vt 0.420751 0.597854
vt 0.298584 0.583745
vt 0.487861 0.428356
vt 0.524179 0.488903
vt 0.556374 0.390094
vt 0.609051 0.434253
vt 0.575255 0.346448
vt 0.646854 0.368691
vt 0.487487 0.367611
vt 0.638871 0.457851
vt 0.542621 0.522119
vt 0.674614 0.500145
vt 0.741369 0.40357
vt 0.684096 0.380852
vt 0.556679 0.573531
vt 0.481838 0.298915
vt 0.582781 0.296955
vt 0.486895 0.230575
vt 0.578467 0.250745
vt 0.65827 0.29418
vt 0.647237 0.22559
vt 0.697741 0.292399
vt 0.681421 0.212723
vt 0.756046 0.290138
vt 0.729939 0.189317
vt 0.486638 0.170849
vt 0.548178 0.204885
vt 0.598815 0.157452
vt 0.520588 0.11101
vt 0.627645 0.133803
vt 0.537672 0.078051
vt 0.552081 0.0282
vt 0.655711 0.093728
vn -0.17172396 -0.9776847 0.12101096
vn -0.19803602 -0.9771591 0.077084
vn -0.69986117 -0.6622742 0.26755807
vn -0.6108669 -0.6844838 0.3978989
vn -0.08053497 -0.99224067 0.094722964
vn -0.45270917 -0.6983793 0.55436516
vn -0 -1 0
vn 0.0057199993 -0.98953587 0.14417398
vn 0.019398006 -0.7514532 0.6595012
vn 0.083946 -0.99170506 0.09733501
vn 0.45132008 -0.7002631 0.5531201
vn -0 -1 0
vn -0 -1 0
vn 0.16899094 -0.9781497 0.121099964
vn 0.605582 -0.688129 0.399686
vn 0.19684295 -0.9774548 0.07638699
vn 0.69866294 -0.66527796 0.26320198
vn 0.18520199 -0.98174083 0.043417998
vn 0.71954584 -0.6743878 0.16569495
vn 0.73087996 -0.67999893 0.058446992
vn 0.17833589 -0.9838605 0.014654991
vn -0 -1 0
vn -0 -1 0
vn -0 -1 0
vn -0 -1 0
vn -0 -1 0
vn -0 -1 0
vn -0.18480307 -0.9818204 0.043319024
vn -0.17785008 -0.9839495 0.014593006
vn -0.7195228 -0.67441475 0.16568594
vn -0.7305571 -0.68035007 0.058395006
vn -0.7360009 -0.65857285 -0.15679398
vn -0.18615289 -0.98194546 -0.03361598
vn -0.55373186 -0.7099378 -0.4351659
vn -0.14186399 -0.98280394 -0.11819899
vn -0.22380699 -0.758596 -0.61191696
vn -0.034709 -0.992243 -0.119369
vn -0 -1 0
vn -0.023592995 -0.78839487 -0.61471695
vn -0.0038350017 -0.9938154 -0.110978045
vn 0.24040017 -0.74828446 -0.6182864
vn 0.033731002 -0.9924452 -0.11796102
vn -0 -1 0
vn -0 -1 0
vn 0.54867005 -0.72497505 -0.41638005
vn 0.13168906 -0.98383546 -0.12135006
vn 0.71891826 -0.67882824 -0.14949507
vn 0.18679509 -0.9816835 -0.03748702
vn -0.6726405 0.5905556 0.44586867
vn -0.77924937 0.5506582 0.2992421
vn -0.52843606 0.8242691 0.20331202
vn -0.47194028 0.8263315 0.30732518
vn -0.51863724 0.6192463 0.58953327
vn -0.353597 0.872482 0.33726
vn -0.28028214 0.9503325 0.13531508
vn -0.8297508 -0.0003979999 0.5581339
vn -0.62524235 -0.0004860003 0.7804305
vn -0.6108669 -0.6844838 0.3978989
vn -0.45270917 -0.6983793 0.55436516
vn -0.69986117 -0.6622742 0.26755807
vn -0.9335167 -0.0002469999 0.3585339
vn 0.019398006 -0.7514532 0.6595012
vn 0.030959997 -0.001179 0.99951994
vn 0.45132008 -0.7002631 0.5531201
vn 0.623164 -0.00041800004 0.7820911
vn 0.021746004 0.6683921 0.7434911
vn 0.51693636 0.6168764 0.5934984
vn 0.0111019965 0.9086717 0.41736385
vn 0.35338312 0.87060225 0.34230408
vn 0.0013299998 0.9899318 0.14153899
vn 0.27953497 0.9504499 0.13603398
vn 0.82631785 -0.00040299993 0.5632039
vn 0.605582 -0.688129 0.399686
vn 0.9357327 -0.00023699991 0.35270992
vn 0.69866294 -0.66527796 0.26320198
vn 0.7823502 0.5489791 0.29419407
vn 0.6695451 0.59088606 0.45007008
vn 0.46737385 0.82803875 0.3096989
vn 0.528821 0.824949 0.199518
vn 0.80967593 0.5575929 0.18307099
vn 0.5271131 0.8423461 0.11227102
vn 0.51363987 0.8572998 0.03480099
vn 0.8192156 0.5698437 0.06452797
vn 0.9735556 -0.00018899993 0.22844993
vn 0.996822 -0.000277 0.079661
vn 0.26046404 0.96547216 -0.0046990006
vn 0.2830511 0.95811236 0.043621015
vn 0.71954584 -0.6743878 0.16569495
vn 0.73087996 -0.67999893 0.058446992
vn -6.900004E-05 0.9998684 -0.016223008
vn 1.3999996E-05 0.9993537 0.03594699
vn -0.26042002 0.96548414 -0.0046790005
vn -0.28300807 0.9581273 0.043572012
vn -0.5126301 0.8579101 0.03465001
vn -0.52626675 0.84290063 0.11207896
vn -0.8190809 0.57004493 0.06446099
vn -0.8096751 0.55759704 0.18306203
vn -0.996822 -0.000278 0.079661
vn -0.97355586 -0.00018999998 0.22844897
vn -0.7305571 -0.68035007 0.058395006
vn -0.7195228 -0.67441475 0.16568594
vn -0.493504 0.861869 -0.11677201
vn -0.78339976 0.5959638 -0.17638595
vn -0.35065797 0.88362396 -0.31023797
vn -0.5983349 0.6513198 -0.46666685
vn -0.16379598 0.9099669 -0.38096094
vn -0.25985685 0.67632556 -0.68924457
vn -0.20022395 0.9729028 -0.11563097
vn -0.77787334 -0.0010130005 -0.6284203
vn -0.9755146 -0.0008759996 -0.21993291
vn -0.55373186 -0.7099378 -0.4351659
vn -0.22380699 -0.758596 -0.61191696
vn -0.358962 -0.000515 -0.93335205
vn -0.7360009 -0.65857285 -0.15679398
vn -0.0016180002 0.9897452 -0.14283502
vn -0.011345999 0.9199779 -0.39180595
vn 0.20152292 0.97264457 -0.11554695
vn 0.17270304 0.90833724 -0.38091612
vn -0.030008988 0.68668574 -0.72633475
vn 0.28043297 0.6861659 -0.6712179
vn -0.039644998 -0.00026499998 -0.9992138
vn 0.38015524 -0.0006620004 -0.9249225
vn -0.023592995 -0.78839487 -0.61471695
vn 0.24040017 -0.74828446 -0.6182864
vn 0.49230492 0.86312985 -0.11243998
vn 0.35988492 0.88221776 -0.30360293
vn 0.5983444 0.65391344 -0.4630133
vn 0.7847451 0.5964361 -0.16863903
vn 0.78005284 -0.0009599998 -0.6257129
vn 0.9779363 -0.0008639994 -0.20890088
vn 0.71891826 -0.67882824 -0.14949507
vn 0.54867005 -0.72497505 -0.41638005
g Chicken_Raw1_0
f 3/3/3 2/2/2 1/1/1
f 4/4/4 3/3/3 1/1/1
f 1/1/1 5/5/5 4/4/4
f 5/5/5 1/1/1 2/2/2
f 5/5/5 6/6/6 4/4/4
f 7/7/7 5/5/5 2/2/2
f 5/5/5 8/8/8 6/6/6
f 8/8/8 9/9/9 6/6/6
f 8/8/8 10/10/10 9/9/9
f 10/10/10 11/11/11 9/9/9
f 12/12/12 10/10/10 8/8/8
f 13/13/13 12/12/12 8/8/8
f 13/13/13 8/8/8 5/5/5
f 7/7/7 13/13/13 5/5/5
f 10/10/10 14/14/14 11/11/11
f 14/14/14 15/15/15 11/11/11
f 15/15/15 14/14/14 16/16/16
f 16/16/16 14/14/14 10/10/10
f 12/12/12 16/16/16 10/10/10
f 17/17/17 15/15/15 16/16/16
f 17/17/17 16/16/16 18/18/18
f 18/18/18 16/16/16 12/12/12
f 19/19/19 17/17/17 18/18/18
f 19/19/19 18/18/18 20/20/20
f 18/18/18 21/21/21 20/20/20
f 18/18/18 22/22/22 21/21/21
f 22/22/22 12/12/12 13/13/13
f 22/22/22 18/18/18 12/12/12
f 22/22/22 23/23/23 21/21/21
f 23/23/23 22/22/22 24/24/24
f 24/24/24 22/22/22 13/13/13
f 25/25/25 23/23/23 24/24/24
f 24/24/24 26/26/26 25/25/25
f 26/26/26 27/27/27 25/25/25
f 27/27/27 26/26/26 28/28/28
f 29/29/29 27/27/27 28/28/28
f 29/29/29 28/28/28 30/30/30
f 31/31/31 29/29/29 30/30/30
f 29/29/29 31/31/31 32/32/32
f 33/33/33 29/29/29 32/32/32
f 27/27/27 29/29/29 33/33/33
f 33/33/33 32/32/32 34/34/34
f 35/35/35 33/33/33 34/34/34
f 34/34/34 36/36/36 35/35/35
f 36/36/36 37/37/37 35/35/35
f 38/38/38 33/33/33 35/35/35
f 37/37/37 38/38/38 35/35/35
f 38/38/38 27/27/27 33/33/33
f 36/36/36 39/39/39 37/37/37
f 39/39/39 40/40/40 37/37/37
f 37/37/37 40/40/40 38/38/38
f 39/39/39 41/41/41 40/40/40
f 41/41/41 42/42/42 40/40/40
f 40/40/40 42/42/42 43/43/43
f 40/40/40 43/43/43 38/38/38
f 42/42/42 44/44/44 43/43/43
f 41/41/41 45/45/45 42/42/42
f 45/45/45 46/46/46 42/42/42
f 42/42/42 46/46/46 44/44/44
f 45/45/45 47/47/47 46/46/46
f 47/47/47 48/48/48 46/46/46
f 46/46/46 48/48/48 44/44/44
f 47/47/47 20/20/20 48/48/48
f 20/20/20 21/21/21 48/48/48
f 43/43/43 44/44/44 25/25/25
f 44/44/44 23/23/23 25/25/25
f 48/48/48 21/21/21 23/23/23
f 44/44/44 48/48/48 23/23/23
f 43/43/43 25/25/25 27/27/27
f 38/38/38 43/43/43 27/27/27
f 51/51/51 50/50/50 49/49/49
f 52/52/52 51/51/51 49/49/49
f 49/49/49 53/53/53 52/52/52
f 53/53/53 54/54/54 52/52/52
f 55/55/55 51/51/51 52/52/52
f 54/54/54 55/55/55 52/52/52
f 53/53/53 49/49/49 56/56/56
f 56/56/56 49/49/49 50/50/50
f 57/57/57 53/53/53 56/56/56
f 57/57/57 56/56/56 58/58/58
f 59/59/59 57/57/57 58/58/58
f 60/60/60 58/58/58 56/56/56
f 61/61/61 60/60/60 56/56/56
f 61/61/61 56/56/56 50/50/50
f 59/59/59 62/62/62 57/57/57
f 62/62/62 63/63/63 57/57/57
f 57/57/57 63/63/63 53/53/53
f 63/63/63 62/62/62 64/64/64
f 65/65/65 63/63/63 64/64/64
f 63/63/63 65/65/65 66/66/66
f 63/63/63 66/66/66 53/53/53
f 53/53/53 66/66/66 54/54/54
f 65/65/65 67/67/67 66/66/66
f 66/66/66 67/67/67 68/68/68
f 66/66/66 68/68/68 54/54/54
f 54/54/54 68/68/68 55/55/55
f 67/67/67 69/69/69 68/68/68
f 68/68/68 69/69/69 70/70/70
f 68/68/68 70/70/70 55/55/55
f 69/69/69 71/71/71 70/70/70
f 65/65/65 64/64/64 72/72/72
f 65/65/65 72/72/72 67/67/67
f 64/64/64 73/73/73 72/72/72
f 74/74/74 72/72/72 73/73/73
f 75/75/75 74/74/74 73/73/73
f 74/74/74 76/76/76 72/72/72
f 76/76/76 77/77/77 72/72/72
f 72/72/72 77/77/77 67/67/67
f 67/67/67 77/77/77 69/69/69
f 77/77/77 76/76/76 78/78/78
f 77/77/77 78/78/78 69/69/69
f 69/69/69 78/78/78 71/71/71
f 76/76/76 79/79/79 78/78/78
f 78/78/78 79/79/79 71/71/71
f 76/76/76 80/80/80 79/79/79
f 80/80/80 81/81/81 79/79/79
f 82/82/82 81/81/81 80/80/80
f 83/83/83 82/82/82 80/80/80
f 80/80/80 84/84/84 83/83/83
f 74/74/74 75/75/75 84/84/84
f 84/84/84 80/80/80 76/76/76
f 74/74/74 84/84/84 76/76/76
f 84/84/84 85/85/85 83/83/83
f 82/82/82 86/86/86 81/81/81
f 86/86/86 87/87/87 81/81/81
f 79/79/79 81/81/81 87/87/87
f 85/85/85 84/84/84 88/88/88
f 75/75/75 88/88/88 84/84/84
f 89/89/89 85/85/85 88/88/88
f 86/86/86 90/90/90 87/87/87
f 90/90/90 91/91/91 87/87/87
f 91/91/91 90/90/90 92/92/92
f 93/93/93 91/91/91 92/92/92
f 93/93/93 92/92/92 94/94/94
f 95/95/95 93/93/93 94/94/94
f 94/94/94 96/96/96 95/95/95
f 96/96/96 97/97/97 95/95/95
f 96/96/96 98/98/98 97/97/97
f 98/98/98 99/99/99 97/97/97
f 99/99/99 98/98/98 100/100/100
f 101/101/101 99/99/99 100/100/100
f 95/95/95 97/97/97 50/50/50
f 51/51/51 95/95/95 50/50/50
f 93/93/93 95/95/95 51/51/51
f 94/94/94 102/102/102 96/96/96
f 102/102/102 103/103/103 96/96/96
f 98/98/98 96/96/96 103/103/103
f 103/103/103 102/102/102 104/104/104
f 105/105/105 103/103/103 104/104/104
f 104/104/104 106/106/106 105/105/105
f 106/106/106 104/104/104 102/102/102
f 106/106/106 107/107/107 105/105/105
f 108/108/108 106/106/106 102/102/102
f 103/103/103 105/105/105 109/109/109
f 110/110/110 103/103/103 109/109/109
f 110/110/110 98/98/98 103/103/103
f 110/110/110 109/109/109 111/111/111
f 112/112/112 111/111/111 109/109/109
f 113/113/113 112/112/112 109/109/109
f 113/113/113 109/109/109 105/105/105
f 107/107/107 113/113/113 105/105/105
f 114/114/114 110/110/110 111/111/111
f 108/108/108 115/115/115 106/106/106
f 115/115/115 116/116/116 106/106/106
f 106/106/106 116/116/116 107/107/107
f 115/115/115 117/117/117 116/116/116
f 117/117/117 118/118/118 116/116/116
f 116/116/116 118/118/118 119/119/119
f 116/116/116 119/119/119 107/107/107
f 107/107/107 119/119/119 113/113/113
f 118/118/118 120/120/120 119/119/119
f 121/121/121 119/119/119 120/120/120
f 119/119/119 121/121/121 113/113/113
f 113/113/113 121/121/121 112/112/112
f 122/122/122 121/121/121 120/120/120
f 121/121/121 122/122/122 123/123/123
f 121/121/121 123/123/123 112/112/112
f 122/122/122 124/124/124 123/123/123
f 117/117/117 125/125/125 118/118/118
f 125/125/125 126/126/126 118/118/118
f 118/118/118 126/126/126 120/120/120
f 127/127/127 126/126/126 125/125/125
f 126/126/126 127/127/127 120/120/120
f 128/128/128 127/127/127 125/125/125
f 129/129/129 127/127/127 128/128/128
f 120/120/120 127/127/127 129/129/129
f 122/122/122 120/120/120 129/129/129
f 122/122/122 129/129/129 124/124/124
f 130/130/130 129/129/129 128/128/128
f 130/130/130 131/131/131 129/129/129
f 131/131/131 132/132/132 129/129/129
f 129/129/129 132/132/132 124/124/124
f 128/128/128 125/125/125 82/82/82
f 83/83/83 128/128/128 82/82/82
f 130/130/130 128/128/128 83/83/83
f 89/89/89 131/131/131 130/130/130
f 85/85/85 89/89/89 130/130/130
f 85/85/85 130/130/130 83/83/83
f 82/82/82 125/125/125 117/117/117
f 86/86/86 82/82/82 117/117/117
f 86/86/86 117/117/117 115/115/115
f 90/90/90 86/86/86 115/115/115
f 90/90/90 115/115/115 108/108/108
f 92/92/92 90/90/90 108/108/108
f 92/92/92 108/108/108 94/94/94
f 108/108/108 102/102/102 94/94/94
f 2/2/2 3/3/3 30/30/30
f 28/28/28 2/2/2 30/30/30
f 7/7/7 2/2/2 28/28/28
f 26/26/26 7/7/7 28/28/28
f 26/26/26 24/24/24 7/7/7
f 24/24/24 13/13/13 7/7/7
f 114/114/114 100/100/100 98/98/98
f 110/110/110 114/114/114 98/98/98
f 55/55/55 93/93/93 51/51/51
f 55/55/55 70/70/70 93/93/93
f 70/70/70 91/91/91 93/93/93
f 70/70/70 71/71/71 91/91/91
f 71/71/71 87/87/87 91/91/91
f 71/71/71 79/79/79 87/87/87
f 101/101/101 60/60/60 61/61/61
f 99/99/99 101/101/101 61/61/61
f 99/99/99 61/61/61 97/97/97
f 61/61/61 50/50/50 97/97/97
