g Fish_Basket_Cooked
v 0.049696267 0.20930538 0.30833858
v 0.06024009 0.14625868 0.3217761
v -0.06492836 0.12593982 0.35567576
v -0.072462544 0.19084106 0.3350169
v -0.18460181 0.111046344 0.3038529
v -0.19000281 0.17519912 0.29079202
v -0.14302833 0.06562001 0.27003574
v -0.053385396 0.06828454 0.3112623
v 0.037209697 0.09059083 0.30088776
v -0.069251485 0.20346011 0.3090398
v -0.17525184 0.18917987 0.26832226
v -0.055918355 0.19833167 0.14417177
v -0.20207496 0.16590625 0.13658382
v -0.045566183 0.19922782 -0.0078037344
v 0.09056358 0.1986676 0.002263498
v 0.076969825 0.2177156 -0.15450817
v -0.035574723 0.21005481 -0.15986001
v 0.038691632 0.24182723 -0.2864414
v -0.028057635 0.23184535 -0.32542282
v -0.14805336 0.19176902 -0.17259876
v -0.09804969 0.22508907 -0.2991676
v -0.18156348 0.16434093 -0.018073387
v 0.08900535 0.20567024 0.15832801
v 0.040914528 0.21940249 0.28447476
v 0.04692405 0.23516658 -0.3117724
v -0.027091447 0.22517405 -0.35411167
v 0.05386924 0.1971772 -0.33113968
v -0.019656146 0.18906914 -0.38090548
v 0.03868736 0.1631144 -0.31955686
v -0.01568703 0.15226798 -0.34249702
v -0.09759315 0.17858513 -0.34494808
v -0.07441139 0.14869945 -0.31220964
v -0.104703136 0.21649268 -0.32559586
v 0.08828514 0.21137367 -0.16847183
v 0.09688682 0.1622964 -0.18015142
v 0.05386924 0.1971772 -0.33113968
v 0.1120449 0.13136244 -0.001421385
v 0.104749985 0.188824 0.0018115602
v 0.081078716 0.072758004 -0.0073613
v 0.06872032 0.1257223 -0.20229341
v -0.018340226 0.10245001 -0.20764266
v -0.027776873 0.050421443 -0.0159545
v -0.10549965 0.1144422 -0.21980105
v -0.138303 0.045986436 -0.023394793
v -0.07441139 0.14869945 -0.31220964
v -0.01568703 0.15226798 -0.34249702
v 0.03868736 0.1631144 -0.31955686
v -0.040801167 0.039963983 0.17560066
v -0.16469887 0.04253696 0.17240287
v -0.053385396 0.06828454 0.3112623
v 0.037209697 0.09059083 0.30088776
v 0.07888206 0.07091018 0.18701679
v -0.14302833 0.06562001 0.27003574
v 0.11268577 0.12833327 0.17670849
v 0.103022076 0.19561847 0.1713208
v 0.06024009 0.14625868 0.3217761
v -0.138303 0.045986436 -0.023394793
v -0.10549965 0.1144422 -0.21980105
v -0.14894874 0.13743575 -0.19951572
v -0.18635535 0.093773164 -0.023266215
v -0.15871437 0.18232211 -0.18812294
v -0.19700173 0.15022387 -0.020279936
v -0.09759315 0.17858513 -0.34494808
v -0.07441139 0.14869945 -0.31220964
v -0.21974586 0.15055689 0.14770031
v -0.21188697 0.08474726 0.15297934
v -0.18460181 0.111046344 0.3038529
v -0.16469887 0.04253696 0.17240287
v -0.14302833 0.06562001 0.27003574
vt 0.4842142 0.8002381
vt 0.47319013 0.87982136
vt 0.608881 0.897158
vt 0.6141247 0.8329032
vt 0.7570946 0.8908586
vt 0.74914 0.8073769
vt 0.73008806 0.98096544
vt 0.60357285 0.9766428
vt 0.49626034 0.9511047
vt 0.61204475 0.8036826
vt 0.72790635 0.77732706
vt 0.61200345 0.6365677
vt 0.7645269 0.63755906
vt 0.6051428 0.48385233
vt 0.46619856 0.49539435
vt 0.47365904 0.34251642
vt 0.5893485 0.32962143
vt 0.4975377 0.19315913
vt 0.57021767 0.15368092
vt 0.7112483 0.3139066
vt 0.6467267 0.17413506
vt 0.75458133 0.47370237
vt 0.46905556 0.63913816
vt 0.5004492 0.773148
vt 0.48267972 0.16334367
vt 0.56923693 0.12513882
vt 0.47331837 0.105814636
vt 0.5673492 0.08719385
vt 0.4800849 0.04909205
vt 0.5598808 0.034081873
vt 0.6502361 0.08561456
vt 0.6394587 0.02612516
vt 0.65761405 0.1417397
vt 0.45601577 0.32759622
vt 0.40593243 0.31978318
vt 0.43424803 0.1448549
vt 0.38956833 0.49481523
vt 0.44535375 0.49554047
vt 0.32549614 0.4907497
vt 0.3602085 0.2946726
vt 0.26684043 0.2663514
vt 0.21292673 0.4774233
vt 0.17189263 0.2197488
vt 0.086839214 0.4622625
vt 0.25114256 0.11442065
vt 0.33445492 0.1069839
vt 0.3891268 0.15562883
vt 0.20830475 0.6815158
vt 0.0705751 0.6977052
vt 0.23024629 0.83448464
vt 0.3358453 0.79963565
vt 0.3283875 0.6723697
vt 0.117927775 0.8079718
vt 0.38906506 0.65744436
vt 0.45021555 0.65123516
vt 0.40860325 0.81572336
vt 0.9188958 0.44498488
vt 0.81316674 0.22657645
vt 0.77520114 0.27320552
vt 0.8408521 0.4626989
vt 0.7289318 0.29534337
vt 0.77785075 0.47191525
vt 0.69685245 0.10922617
vt 0.7544353 0.12052646
vt 0.78890634 0.64952487
vt 0.8576721 0.6559786
vt 0.82696676 0.8271058
vt 0.92882717 0.6797338
vt 0.9068661 0.8006985
vn 0.5998662 0.44237912 0.6666792
vn 0.69777423 -0.05479202 0.71421915
vn -0.06295602 -0.16317007 0.9845873
vn -0.13154896 0.43787885 0.8893576
vn -0.7214442 -0.28817108 0.6296632
vn -0.7836109 0.28326297 0.55291593
vn -0.28722405 -0.8812481 0.37537205
vn 0.068215996 -0.87476593 0.4797199
vn 0.46318397 -0.7534799 0.46661395
vn -0.13695103 0.9904372 0.016685003
vn -0.25281197 0.96725386 -0.022495996
vn -0.12733898 0.9905247 -0.051435992
vn -0.29226694 0.9549677 -0.051153984
vn -0.12890804 0.9911384 0.032053016
vn 0.05037302 0.9983765 0.026589014
vn 0.024701009 0.9937324 0.10902205
vn -0.13112794 0.98390967 0.12135595
vn -0.028208997 0.99283385 0.116125986
vn -0.12226198 0.9899358 0.07126898
vn -0.26997986 0.95829445 0.09371495
vn -0.22295894 0.9703597 0.09322797
vn -0.2971871 0.9546913 0.015634006
vn 0.03914902 0.9984774 -0.038863014
vn -0.0062999977 0.9999745 -0.0033729984
vn 0.73492104 0.564573 -0.37569702
vn -0.02254301 0.6957283 -0.7179513
vn 0.850218 0.021366 -0.525997
vn 0.056233995 -0.086148985 -0.99469393
vn 0.51259905 -0.748335 -0.4209951
vn 0.11085998 -0.86738294 -0.4851359
vn -0.7076843 -0.26614013 -0.6544863
vn -0.2644921 -0.8626682 -0.4311002
vn -0.79818314 0.35231903 -0.48864606
vn 0.9278602 0.35722113 -0.10709102
vn 0.96808875 -0.16626896 -0.18750696
vn 0.850218 0.021366 -0.525997
vn 0.9735295 -0.2202519 -0.06106797
vn 0.9579911 0.28584003 -0.023422
vn 0.48043716 -0.8690622 -0.11794504
vn 0.4955259 -0.81981283 -0.28698593
vn 0.11160903 -0.9469923 -0.30124608
vn 0.11831697 -0.9821369 -0.14631498
vn -0.25384307 -0.9016003 -0.35025808
vn -0.23190606 -0.9542192 -0.18890506
vn -0.2644921 -0.8626682 -0.4311002
vn 0.11085998 -0.86738294 -0.4851359
vn 0.51259905 -0.748335 -0.4209951
vn 0.11587396 -0.9913517 0.06160298
vn -0.2736099 -0.9602466 0.05535498
vn 0.068215996 -0.87476593 0.4797199
vn 0.46318397 -0.7534799 0.46661395
vn 0.51147485 -0.8512706 0.11718294
vn -0.28722405 -0.8812481 0.37537205
vn 0.9703682 -0.18435405 0.15620203
vn 0.9381516 0.30915788 0.15586193
vn 0.69777423 -0.05479202 0.71421915
vn -0.23190606 -0.9542192 -0.18890506
vn -0.25384307 -0.9016003 -0.35025808
vn -0.81603354 -0.46286866 -0.34618175
vn -0.83296716 -0.5074951 -0.22048707
vn -0.9598731 0.123413004 -0.25181904
vn -0.983343 0.052272003 -0.17408101
vn -0.7076843 -0.26614013 -0.6544863
vn -0.2644921 -0.8626682 -0.4311002
vn -0.99571556 0.09081697 0.017397992
vn -0.88292575 -0.46925092 0.015673999
vn -0.7214442 -0.28817108 0.6296632
vn -0.2736099 -0.9602466 0.05535498
vn -0.28722405 -0.8812481 0.37537205
g Fish_Basket_Cooked_0
f 3/3/3 2/2/2 1/1/1
f 4/4/4 3/3/3 1/1/1
f 5/5/5 3/3/3 4/4/4
f 6/6/6 5/5/5 4/4/4
f 5/5/5 7/7/7 3/3/3
f 7/7/7 8/8/8 3/3/3
f 3/3/3 8/8/8 2/2/2
f 8/8/8 9/9/9 2/2/2
f 4/4/4 10/10/10 6/6/6
f 10/10/10 11/11/11 6/6/6
f 11/11/11 10/10/10 12/12/12
f 13/13/13 11/11/11 12/12/12
f 13/13/13 12/12/12 14/14/14
f 14/14/14 12/12/12 15/15/15
f 14/14/14 15/15/15 16/16/16
f 17/17/17 14/14/14 16/16/16
f 17/17/17 16/16/16 18/18/18
f 19/19/19 17/17/17 18/18/18
f 20/20/20 17/17/17 19/19/19
f 21/21/21 20/20/20 19/19/19
f 22/22/22 14/14/14 17/17/17
f 20/20/20 22/22/22 17/17/17
f 22/22/22 13/13/13 14/14/14
f 12/12/12 23/23/23 15/15/15
f 12/12/12 10/10/10 23/23/23
f 10/10/10 24/24/24 23/23/23
f 19/19/19 18/18/18 25/25/25
f 26/26/26 19/19/19 25/25/25
f 21/21/21 19/19/19 26/26/26
f 26/26/26 25/25/25 27/27/27
f 28/28/28 26/26/26 27/27/27
f 28/28/28 27/27/27 29/29/29
f 30/30/30 28/28/28 29/29/29
f 31/31/31 28/28/28 30/30/30
f 32/32/32 31/31/31 30/30/30
f 33/33/33 26/26/26 28/28/28
f 31/31/31 33/33/33 28/28/28
f 33/33/33 21/21/21 26/26/26
f 20/20/20 21/21/21 33/33/33
f 25/25/25 18/18/18 34/34/34
f 34/34/34 35/35/35 25/25/25
f 35/35/35 36/36/36 25/25/25
f 37/37/37 35/35/35 34/34/34
f 38/38/38 37/37/37 34/34/34
f 37/37/37 39/39/39 35/35/35
f 39/39/39 40/40/40 35/35/35
f 35/35/35 40/40/40 36/36/36
f 41/41/41 40/40/40 39/39/39
f 42/42/42 41/41/41 39/39/39
f 43/43/43 41/41/41 42/42/42
f 44/44/44 43/43/43 42/42/42
f 43/43/43 45/45/45 41/41/41
f 45/45/45 46/46/46 41/41/41
f 41/41/41 46/46/46 40/40/40
f 46/46/46 47/47/47 40/40/40
f 40/40/40 47/47/47 36/36/36
f 44/44/44 42/42/42 48/48/48
f 49/49/49 44/44/44 48/48/48
f 49/49/49 48/48/48 50/50/50
f 50/50/50 48/48/48 51/51/51
f 48/48/48 52/52/52 51/51/51
f 42/42/42 39/39/39 52/52/52
f 48/48/48 42/42/42 52/52/52
f 53/53/53 49/49/49 50/50/50
f 54/54/54 52/52/52 39/39/39
f 37/37/37 54/54/54 39/39/39
f 55/55/55 54/54/54 37/37/37
f 38/38/38 55/55/55 37/37/37
f 55/55/55 1/1/1 54/54/54
f 1/1/1 56/56/56 54/54/54
f 56/56/56 51/51/51 52/52/52
f 54/54/54 56/56/56 52/52/52
f 38/38/38 15/15/15 55/55/55
f 16/16/16 15/15/15 38/38/38
f 34/34/34 16/16/16 38/38/38
f 18/18/18 16/16/16 34/34/34
f 15/15/15 23/23/23 55/55/55
f 55/55/55 23/23/23 1/1/1
f 23/23/23 24/24/24 1/1/1
f 1/1/1 24/24/24 4/4/4
f 24/24/24 10/10/10 4/4/4
f 59/59/59 58/58/58 57/57/57
f 60/60/60 59/59/59 57/57/57
f 61/61/61 59/59/59 60/60/60
f 62/62/62 61/61/61 60/60/60
f 61/61/61 33/33/33 59/59/59
f 33/33/33 63/63/63 59/59/59
f 59/59/59 63/63/63 58/58/58
f 63/63/63 64/64/64 58/58/58
f 62/62/62 60/60/60 65/65/65
f 60/60/60 66/66/66 65/65/65
f 60/60/60 57/57/57 66/66/66
f 65/65/65 66/66/66 6/6/6
f 66/66/66 67/67/67 6/6/6
f 57/57/57 68/68/68 66/66/66
f 66/66/66 68/68/68 67/67/67
f 68/68/68 69/69/69 67/67/67
f 61/61/61 20/20/20 33/33/33
f 22/22/22 20/20/20 61/61/61
f 62/62/62 22/22/22 61/61/61
f 13/13/13 22/22/22 62/62/62
f 65/65/65 13/13/13 62/62/62
f 11/11/11 13/13/13 65/65/65
f 6/6/6 11/11/11 65/65/65
