g Fish_Fillet1
v 0.23700164 0.1685564 -0.46177933
v 0.2504965 0.17285095 -0.31898177
v 0.14301574 0.2104556 -0.318844
v 0.13522476 0.2050034 -0.4657466
v -0.003805542 0.19703704 -0.31879318
v -0.003805542 0.1929211 -0.4434709
v -0.15062699 0.21045548 -0.3188437
v -0.14283562 0.20500322 -0.4657466
v -0.2581076 0.17285082 -0.31898132
v -0.24461257 0.16855627 -0.461779
v -0.2974482 0.11127019 -0.31917006
v -0.2818656 0.11231163 -0.46218824
v 0.2742546 0.11231163 -0.46218824
v 0.28983748 0.11127019 -0.31917006
v 0.1477835 0.21137282 -0.14768204
v 0.25875458 0.1740546 -0.14768204
v -0.003805542 0.19738354 -0.14768204
v -0.15539451 0.21137282 -0.14768204
v -0.26636544 0.1740546 -0.14768204
v -0.30698365 0.11122182 -0.14768204
v 0.29937255 0.11122182 -0.14768204
v 0.13883835 0.21050888 0.023063812
v 0.24326126 0.17291513 0.02342903
v -0.003805542 0.19707565 0.022929916
v -0.14644958 0.21050888 0.023063812
v -0.25087234 0.17291513 0.02342903
v -0.2890936 0.11134098 0.023927536
v 0.28148255 0.11134098 0.023927536
v 0.12427719 0.2062025 0.15164672
v 0.21804015 0.16968225 0.15908104
v -0.003805542 0.19395776 0.148926
v -0.13188812 0.2062025 0.15164672
v -0.22565116 0.16968225 0.15908104
v -0.2599707 0.11371545 0.16923591
v 0.25235978 0.11371545 0.16923591
v 0.104633175 0.19921154 0.2577552
v 0.1840155 0.16641603 0.27539542
v -0.003805542 0.18719813 0.25129882
v -0.11224403 0.19921154 0.2577552
v -0.19162658 0.16641603 0.27539542
v -0.22068276 0.1204481 0.29949188
v 0.21307158 0.1204481 0.29949188
v 0.08855072 0.17555736 0.35691673
v 0.15727676 0.15486823 0.37254667
v -0.003794708 0.16551906 0.35163605
v -0.09614013 0.17555736 0.35691673
v -0.16496094 0.15479898 0.37239495
v -0.19186485 0.12542145 0.39367935
v 0.18412627 0.12554277 0.3938674
v 0.06997253 0.15081038 0.47199386
v 0.12785171 0.1384528 0.47012192
v -0.0037805939 0.14430474 0.46336073
v -0.077533945 0.15081038 0.47199386
v -0.13676628 0.1384528 0.4685498
v -0.16131942 0.122883014 0.46776304
v 0.15354201 0.12302903 0.46803695
v -0.2818656 0.11231163 -0.46218824
v -0.2974482 0.11127019 -0.31917006
v -0.2581076 0.04473087 -0.3193582
v -0.24461257 0.053884257 -0.4804965
v -0.15062699 -0.00402425 -0.3194963
v -0.14283562 0.0117060095 -0.49816543
v -0.003805542 0.00233908 -0.31954664
v -0.003805542 0.0169158 -0.480905
v 0.14301574 -0.00402425 -0.3194963
v 0.13522476 0.0117060095 -0.49816543
v 0.2504965 0.04473087 -0.3193582
v 0.23700164 0.053884257 -0.4804965
v 0.28983748 0.11127019 -0.31917006
v 0.2742546 0.11231163 -0.46218824
v -0.26636544 0.04256429 -0.14768204
v -0.30698365 0.11122182 -0.14768204
v -0.15539451 -0.00777397 -0.14768204
v -0.003805542 -0.0011168199 -0.14768204
v 0.1477835 -0.00777397 -0.14768204
v 0.25875458 0.04256429 -0.14768204
v 0.29937255 0.11122182 -0.14768204
v -0.25087234 0.044801887 0.024426803
v -0.2890936 0.11134098 0.023927536
v -0.14644958 -0.00395297 0.024791794
v -0.003805542 0.00239589 0.024925385
v 0.13883835 -0.00395297 0.024791794
v 0.24326126 0.044801887 0.024426803
v 0.28148255 0.11134098 0.023927536
v -0.22565116 0.0555775 0.17939118
v -0.2599707 0.11371545 0.16923591
v -0.13188812 0.013543109 0.18682534
v -0.003805542 0.01840006 0.18954612
v 0.12427719 0.013543109 0.18682534
v 0.21804015 0.0555775 0.17939118
v 0.25235978 0.11371545 0.16923591
v -0.19162658 0.07544727 0.32358855
v -0.22068276 0.1204481 0.29949188
v -0.11224403 0.04329319 0.3412285
v -0.003805542 0.045314748 0.34768516
v 0.104633175 0.04329319 0.3412285
v 0.1840155 0.07544727 0.32358855
v 0.21307158 0.1204481 0.29949188
v -0.17100821 0.09271256 0.4119146
v -0.19186485 0.12542145 0.39367935
v -0.10339729 0.06539235 0.42351845
v -0.003794708 0.065100856 0.42952994
v 0.0958078 0.06539235 0.42351845
v 0.16330521 0.09283785 0.41206306
v 0.18412627 0.12554277 0.3938674
v -0.143246 0.10687189 0.48282942
v -0.16131942 0.122883014 0.46776304
v -0.085243836 0.09533256 0.49321273
v -0.0037805939 0.09271783 0.48509902
v 0.077682495 0.09533256 0.49321273
v 0.13568482 0.10687189 0.47545263
v 0.15354201 0.12302903 0.46803695
v -0.14280693 0.16729724 -0.4718451
v -0.14276245 0.11152625 -0.4813429
v -0.003805542 0.108676925 -0.46096283
v -0.003805542 0.1530008 -0.45151228
v 0.13525696 0.111526355 -0.48134354
v 0.13523743 0.16729729 -0.4718457
v 0.1352385 0.05525819 -0.4910606
v -0.003805542 0.06439479 -0.47094542
v -0.14280464 0.05525817 -0.49106032
v 0.23700164 0.1685564 -0.46177933
v 0.2742546 0.11231163 -0.46218824
v 0.23700164 0.053884257 -0.4804965
v -0.2818656 0.11231163 -0.46218824
v -0.24461257 0.053884257 -0.4804965
v -0.24461257 0.16855627 -0.461779
v -0.14283562 0.20500322 -0.4657466
v -0.003805542 0.1929211 -0.4434709
v 0.13522476 0.2050034 -0.4657466
v 0.13522476 0.0117060095 -0.49816543
v -0.003805542 0.0169158 -0.480905
v -0.14283562 0.0117060095 -0.49816543
v 0.15354201 0.12302903 0.46803695
v 0.13568482 0.10687189 0.47545263
v 0.077682495 0.09533256 0.49321273
v 0.07378402 0.12338496 0.48248327
v -0.0037805939 0.118517056 0.47422743
v -0.0037805939 0.09271783 0.48509902
v -0.08135292 0.12333057 0.48250404
v -0.085243836 0.09533256 0.49321273
v -0.16131942 0.122883014 0.46776304
v -0.143246 0.10687189 0.48282942
v 0.12785171 0.1384528 0.47012192
v 0.06997253 0.15081038 0.47199386
v -0.0037805939 0.14430474 0.46336073
v -0.077533945 0.15081038 0.47199386
v -0.13676628 0.1384528 0.4685498
vt 0.668515 0.57042
vt 0.564095 0.563798
vt 0.564987 0.645706
vt 0.671737 0.649821
vt 0.565739 0.751599
vt 0.656123 0.751843
vt 0.564643 0.857209
vt 0.670603 0.853902
vt 0.563895 0.938486
vt 0.666568 0.932362
vt 0.565089 0.990735
vt 0.668263 0.980932
vt 0.670512 0.520723
vt 0.56516 0.510474
vt 0.442937 0.643779
vt 0.441467 0.560793
vt 0.443601 0.751558
vt 0.443275 0.859178
vt 0.442635 0.941719
vt 0.44164 0.995104
vt 0.439801 0.506847
vt 0.322667 0.651134
vt 0.320505 0.572888
vt 0.32312 0.751747
vt 0.323336 0.852488
vt 0.322177 0.930529
vt 0.317894 0.982241
vt 0.315511 0.521174
vt 0.232641 0.661789
vt 0.224882 0.591202
vt 0.234358 0.751938
vt 0.233277 0.842388
vt 0.226429 0.91297
vt 0.21327 0.958753
vt 0.211124 0.545722
vt 0.158548 0.675319
vt 0.14287 0.615859
vt 0.161758 0.752167
vt 0.159028 0.828908
vt 0.144097 0.888802
vt 0.120563 0.924682
vt 0.119031 0.580542
vt 0.086439 0.685489
vt 0.072983 0.634449
vt 0.088359 0.752328
vt 0.086661 0.819026
vt 0.073605 0.87049
vt 0.053862 0.896916
vt 0.053039 0.608637
vt 0.001083 0.698087
vt 0.001068 0.654929
vt 0.005865 0.752312
vt 0.000748 0.806744
vt 0.001853 0.851302
vt 0 0.872655
vt 0 0.633098
vt 0.686733 0.010988
vt 0.579068 0.001898
vt 0.578421 0.059216
vt 0.698471 0.063632
vt 0.579927 0.144802
vt 0.71179 0.146329
vt 0.582222 0.250571
vt 0.700794 0.249985
vt 0.581659 0.355996
vt 0.71179 0.353384
vt 0.582074 0.440476
vt 0.698989 0.434393
vt 0.584031 0.496211
vt 0.688274 0.485486
vt 0.454293 0.058235
vt 0.451277 0
vt 0.45748 0.144781
vt 0.45956 0.251714
vt 0.460163 0.35848
vt 0.459953 0.444376
vt 0.459102 0.501829
vt 0.332307 0.072988
vt 0.325388 0.017864
vt 0.336974 0.15385
vt 0.338352 0.25316
vt 0.339846 0.352565
vt 0.338258 0.433487
vt 0.333544 0.488831
vt 0.22344 0.093761
vt 0.220582 0.045002
vt 0.224317 0.165567
vt 0.222971 0.254475
vt 0.226424 0.343675
vt 0.227922 0.41625
vt 0.226758 0.465817
vt 0.121858 0.118956
vt 0.128343 0.077777
vt 0.115484 0.179448
vt 0.110658 0.255111
vt 0.116072 0.331397
vt 0.123467 0.393242
vt 0.130895 0.435384
vt 0.059161 0.133642
vt 0.063026 0.103956
vt 0.056375 0.184693
vt 0.050959 0.254958
vt 0.055763 0.325905
vt 0.058885 0.378272
vt 0.062708 0.40923
vt 0.007971 0.15141
vt 0.014252 0.13238
vt 0.001738 0.194266
vt 0.005738 0.254505
vt 0 0.314985
vt 0.010742 0.359968
vt 0.012011 0.378708
vt 0.790968 0.606664
vt 0.750608 0.606933
vt 0.75166 0.707077
vt 0.783944 0.707088
vt 0.750618 0.807297
vt 0.790979 0.807521
vt 0.709897 0.807015
vt 0.7193 0.707072
vt 0.709905 0.607153
vt 0.79263 0.880426
vt 0.752785 0.907321
vt 0.709674 0.879938
vt 0.752785 0.506847
vt 0.709641 0.534201
vt 0.792622 0.53374
vt 0.818201 0.606477
vt 0.81296 0.707081
vt 0.818214 0.807678
vt 0.678454 0.806803
vt 0.684706 0.70707
vt 0.678463 0.607341
vt 0.837457 0.733693
vt 0.850158 0.721028
vt 0.861949 0.678682
vt 0.840541 0.676042
vt 0.841453 0.620356
vt 0.861394 0.620352
vt 0.840584 0.564681
vt 0.861951 0.562013
vt 0.837312 0.506847
vt 0.852473 0.520306
vt 0.827407 0.714828
vt 0.819612 0.673398
vt 0.821522 0.62035
vt 0.819612 0.567291
vt 0.825987 0.526227
vn 0.5435811 0.8362202 -0.072494015
vn 0.556047 0.829685 -0.049340002
vn 0.097497985 0.99492884 -0.024710994
vn 0.10513901 0.9934701 -0.044306
vn -0 0.9998803 -0.015475005
vn -0 0.9994691 -0.032582004
vn -0.097498976 0.9949287 -0.024711994
vn -0.10514 0.99346995 -0.044305995
vn -0.5560482 0.8296843 -0.04934002
vn -0.5435811 0.8362202 -0.072494015
vn -0.9968035 -0.0064999964 -0.07962696
vn -0.9921801 -0.055285007 -0.11190301
vn 0.9921801 -0.055285007 -0.11190301
vn 0.9968035 -0.0065019974 -0.07962696
vn 0.09743101 0.9952401 0.0020620006
vn 0.56667703 0.8238601 0.011471001
vn -0 0.99999976 -0.0007249998
vn -0.09743101 0.9952401 0.0020620006
vn -0.56667775 0.82385963 0.011470995
vn -0.9997563 -0.0010860002 0.022052005
vn 0.9997563 -0.0010860002 0.022052005
vn 0.100461036 0.9945263 0.028722009
vn 0.5700307 0.81757265 0.08148597
vn -0 0.99994755 0.010247004
vn -0.100461036 0.9945263 0.028722009
vn -0.57003117 0.8175723 0.08148702
vn -0.9900176 -0.0043959985 0.14087494
vn 0.9900176 -0.0043959985 0.14087494
vn 0.11071003 0.9915623 0.06743502
vn 0.5756271 0.8048611 0.14440201
vn -0 0.99931335 0.037052017
vn -0.11071003 0.9915623 0.067436025
vn -0.575627 0.80486107 0.144403
vn -0.9721292 0.009627002 0.23424807
vn 0.9721292 0.009627002 0.23424807
vn 0.08673799 0.985535 0.14559299
vn 0.5254719 0.82647896 0.20201899
vn 4E-06 0.99212587 0.12524499
vn -0.08680196 0.98551756 0.14567295
vn -0.5254581 0.82645226 0.20216407
vn -0.9525513 0.06766202 0.2967621
vn 0.9525352 0.06769201 0.29680705
vn 0.047472008 0.97482306 0.217868
vn 0.4149588 0.87691957 0.2425309
vn -0 0.9794582 0.20164704
vn -0.04776299 0.97477484 0.21801996
vn -0.4150619 0.8768337 0.24266492
vn -0.9143788 0.22393195 0.33729193
vn 0.9124057 0.22803693 0.3398749
vn 0.020065008 0.97767943 0.20914209
vn 0.309022 0.91800505 0.24854
vn -8.000004E-06 0.98185134 0.18965206
vn -0.019105004 0.97772515 0.20901804
vn -0.31203306 0.91692525 0.24876405
vn -0.87152207 0.274828 0.40610203
vn 0.8483351 0.333005 0.41162506
vn -0.9921801 -0.055285007 -0.11190301
vn -0.9968035 -0.0064999964 -0.07962696
vn -0.6060901 -0.7925642 -0.06705801
vn -0.55969286 -0.8229107 -0.097784966
vn -0.16101994 -0.98526067 -0.05774098
vn -0.15035306 -0.98435533 -0.09186203
vn -0 -0.9985776 -0.05331898
vn -0 -0.9961433 -0.08774203
vn 0.16101894 -0.9852608 -0.057740986
vn 0.15035306 -0.98435533 -0.09186203
vn 0.606089 -0.792565 -0.067058
vn 0.5596921 -0.82291114 -0.09778501
vn 0.9968035 -0.0065019974 -0.07962696
vn 0.9921801 -0.055285007 -0.11190301
vn -0.6262251 -0.7795402 0.012616003
vn -0.9997563 -0.0010860002 0.022052005
vn -0.17040403 -0.98536915 0.0031750002
vn -0 -1 -0.000229
vn 0.17040403 -0.98536915 0.0031750002
vn 0.626224 -0.7795411 0.012616001
vn 0.9997563 -0.0010860002 0.022052005
vn -0.6192579 -0.7780869 0.10535798
vn -0.9900176 -0.0043959985 0.14087494
vn -0.16668501 -0.983422 0.071396
vn -0 -0.9983376 0.05763598
vn 0.16668501 -0.983422 0.071396
vn 0.6192573 -0.77808744 0.10535806
vn 0.9900176 -0.0043959985 0.14087494
vn -0.6101571 -0.7673921 0.19702205
vn -0.9721292 0.009627002 0.23424807
vn -0.16627893 -0.9738056 0.15509291
vn -0 -0.9906907 0.13613196
vn 0.16627893 -0.9738056 0.15509291
vn 0.6101568 -0.7673927 0.1970209
vn 0.9721292 0.009627002 0.23424807
vn -0.5906173 -0.7637684 0.26044008
vn -0.9525513 0.06766202 0.2967621
vn -0.16251302 -0.961947 0.219653
vn -0 -0.9796056 0.20092992
vn 0.16265593 -0.96189773 0.21976292
vn 0.5908371 -0.7635032 0.2607191
vn 0.9525352 0.06769201 0.29680705
vn -0.5749438 -0.7497467 0.32759687
vn -0.9143788 0.22393195 0.33729193
vn -0.172926 -0.931525 0.31993398
vn -0 -0.9463918 0.32302094
vn 0.17592002 -0.9295423 0.3240421
vn 0.575996 -0.74708194 0.33180898
vn 0.9124057 0.22803693 0.3398749
vn -0.4328102 -0.8126373 0.39025122
vn -0.87152207 0.274828 0.40610203
vn -0.12901099 -0.90309197 0.40961093
vn 1E-06 -0.908132 0.418684
vn 0.12582903 -0.8993812 0.41866505
vn 0.45957416 -0.7882193 0.4092701
vn 0.8483351 0.333005 0.41162506
vn 0.046860006 0.16262105 -0.9855752
vn 0.014898003 0.17725503 -0.9840522
vn -1.9999993E-06 0.18912193 -0.9819536
vn -2.0000002E-06 0.183203 -0.9830751
vn -0.014805002 0.17724702 -0.9840551
vn -0.046893995 0.162631 -0.985572
vn -0.029614985 0.18909791 -0.98151153
vn -9.999998E-07 0.18868493 -0.98203766
vn 0.029585995 0.18910097 -0.9815119
vn 0.11740197 0.12800898 -0.98479974
vn 0.11959503 0.16294904 -0.97935927
vn 0.11961503 0.19630805 -0.97321916
vn -0.11951899 0.16295297 -0.97936785
vn -0.11953603 0.19640006 -0.9732102
vn -0.11733098 0.12791899 -0.9848199
vn 0.107827015 0.17382202 -0.97885615
vn -1.9999998E-06 0.179226 -0.983808
vn -0.10789301 0.17379205 -0.9788542
vn -0.074484006 0.17886505 -0.9810502
vn -0 0.18423907 -0.9828814
vn 0.074430004 0.17883801 -0.98105913
vn 0.16983393 0.30497888 0.9370935
vn 0.19088706 0.32053012 0.9278053
vn 0.010387004 0.3497531 0.9367844
vn -0.005637001 0.34122106 0.9399662
vn 9.999998E-07 0.3648029 0.93108475
vn -5.9999977E-05 0.3652419 0.9309126
vn 0.014635996 0.3787659 0.9253768
vn 0.013216005 0.41295114 0.9106573
vn -0.13355395 0.40975085 0.9023677
vn -0.12101396 0.47233784 0.8730708
vn 0.13858403 0.28164104 0.9494592
vn -0.040597007 0.337588 0.94041806
vn 6.300002E-05 0.36432913 0.9312703
vn 0.033715993 0.3473569 0.9371267
vn -0.15121697 0.31154895 0.93812084
g Fish_Fillet1_0
f 3/3/3 2/2/2 1/1/1
f 4/4/4 3/3/3 1/1/1
f 5/5/5 3/3/3 4/4/4
f 6/6/6 5/5/5 4/4/4
f 7/7/7 5/5/5 6/6/6
f 8/8/8 7/7/7 6/6/6
f 9/9/9 7/7/7 8/8/8
f 10/10/10 9/9/9 8/8/8
f 11/11/11 9/9/9 10/10/10
f 12/12/12 11/11/11 10/10/10
f 1/1/1 2/2/2 13/13/13
f 2/2/2 14/14/14 13/13/13
f 3/3/3 15/15/15 2/2/2
f 15/15/15 16/16/16 2/2/2
f 2/2/2 16/16/16 14/14/14
f 17/17/17 15/15/15 3/3/3
f 5/5/5 17/17/17 3/3/3
f 18/18/18 17/17/17 5/5/5
f 7/7/7 18/18/18 5/5/5
f 19/19/19 18/18/18 7/7/7
f 9/9/9 19/19/19 7/7/7
f 20/20/20 19/19/19 9/9/9
f 11/11/11 20/20/20 9/9/9
f 16/16/16 21/21/21 14/14/14
f 15/15/15 22/22/22 16/16/16
f 22/22/22 23/23/23 16/16/16
f 16/16/16 23/23/23 21/21/21
f 24/24/24 22/22/22 15/15/15
f 17/17/17 24/24/24 15/15/15
f 25/25/25 24/24/24 17/17/17
f 18/18/18 25/25/25 17/17/17
f 26/26/26 25/25/25 18/18/18
f 19/19/19 26/26/26 18/18/18
f 27/27/27 26/26/26 19/19/19
f 20/20/20 27/27/27 19/19/19
f 23/23/23 28/28/28 21/21/21
f 22/22/22 29/29/29 23/23/23
f 29/29/29 30/30/30 23/23/23
f 23/23/23 30/30/30 28/28/28
f 31/31/31 29/29/29 22/22/22
f 24/24/24 31/31/31 22/22/22
f 32/32/32 31/31/31 24/24/24
f 25/25/25 32/32/32 24/24/24
f 33/33/33 32/32/32 25/25/25
f 26/26/26 33/33/33 25/25/25
f 34/34/34 33/33/33 26/26/26
f 27/27/27 34/34/34 26/26/26
f 30/30/30 35/35/35 28/28/28
f 29/29/29 36/36/36 30/30/30
f 36/36/36 37/37/37 30/30/30
f 30/30/30 37/37/37 35/35/35
f 38/38/38 36/36/36 29/29/29
f 31/31/31 38/38/38 29/29/29
f 39/39/39 38/38/38 31/31/31
f 32/32/32 39/39/39 31/31/31
f 40/40/40 39/39/39 32/32/32
f 33/33/33 40/40/40 32/32/32
f 41/41/41 40/40/40 33/33/33
f 34/34/34 41/41/41 33/33/33
f 37/37/37 42/42/42 35/35/35
f 36/36/36 43/43/43 37/37/37
f 43/43/43 44/44/44 37/37/37
f 37/37/37 44/44/44 42/42/42
f 45/45/45 43/43/43 36/36/36
f 38/38/38 45/45/45 36/36/36
f 46/46/46 45/45/45 38/38/38
f 39/39/39 46/46/46 38/38/38
f 47/47/47 46/46/46 39/39/39
f 40/40/40 47/47/47 39/39/39
f 48/48/48 47/47/47 40/40/40
f 41/41/41 48/48/48 40/40/40
f 44/44/44 49/49/49 42/42/42
f 43/43/43 50/50/50 44/44/44
f 50/50/50 51/51/51 44/44/44
f 44/44/44 51/51/51 49/49/49
f 52/52/52 50/50/50 43/43/43
f 45/45/45 52/52/52 43/43/43
f 53/53/53 52/52/52 45/45/45
f 46/46/46 53/53/53 45/45/45
f 54/54/54 53/53/53 46/46/46
f 47/47/47 54/54/54 46/46/46
f 55/55/55 54/54/54 47/47/47
f 48/48/48 55/55/55 47/47/47
f 51/51/51 56/56/56 49/49/49
f 59/59/59 58/58/58 57/57/57
f 60/60/60 59/59/59 57/57/57
f 61/61/61 59/59/59 60/60/60
f 62/62/62 61/61/61 60/60/60
f 63/63/63 61/61/61 62/62/62
f 64/64/64 63/63/63 62/62/62
f 65/65/65 63/63/63 64/64/64
f 66/66/66 65/65/65 64/64/64
f 67/67/67 65/65/65 66/66/66
f 68/68/68 67/67/67 66/66/66
f 69/69/69 67/67/67 68/68/68
f 70/70/70 69/69/69 68/68/68
f 59/59/59 71/71/71 58/58/58
f 71/71/71 72/72/72 58/58/58
f 73/73/73 71/71/71 59/59/59
f 61/61/61 73/73/73 59/59/59
f 74/74/74 73/73/73 61/61/61
f 63/63/63 74/74/74 61/61/61
f 75/75/75 74/74/74 63/63/63
f 65/65/65 75/75/75 63/63/63
f 76/76/76 75/75/75 65/65/65
f 67/67/67 76/76/76 65/65/65
f 77/77/77 76/76/76 67/67/67
f 69/69/69 77/77/77 67/67/67
f 71/71/71 78/78/78 72/72/72
f 78/78/78 79/79/79 72/72/72
f 80/80/80 78/78/78 71/71/71
f 73/73/73 80/80/80 71/71/71
f 81/81/81 80/80/80 73/73/73
f 74/74/74 81/81/81 73/73/73
f 82/82/82 81/81/81 74/74/74
f 75/75/75 82/82/82 74/74/74
f 83/83/83 82/82/82 75/75/75
f 76/76/76 83/83/83 75/75/75
f 84/84/84 83/83/83 76/76/76
f 77/77/77 84/84/84 76/76/76
f 78/78/78 85/85/85 79/79/79
f 85/85/85 86/86/86 79/79/79
f 87/87/87 85/85/85 78/78/78
f 80/80/80 87/87/87 78/78/78
f 88/88/88 87/87/87 80/80/80
f 81/81/81 88/88/88 80/80/80
f 89/89/89 88/88/88 81/81/81
f 82/82/82 89/89/89 81/81/81
f 90/90/90 89/89/89 82/82/82
f 83/83/83 90/90/90 82/82/82
f 91/91/91 90/90/90 83/83/83
f 84/84/84 91/91/91 83/83/83
f 85/85/85 92/92/92 86/86/86
f 92/92/92 93/93/93 86/86/86
f 94/94/94 92/92/92 85/85/85
f 87/87/87 94/94/94 85/85/85
f 95/95/95 94/94/94 87/87/87
f 88/88/88 95/95/95 87/87/87
f 96/96/96 95/95/95 88/88/88
f 89/89/89 96/96/96 88/88/88
f 97/97/97 96/96/96 89/89/89
f 90/90/90 97/97/97 89/89/89
f 98/98/98 97/97/97 90/90/90
f 91/91/91 98/98/98 90/90/90
f 92/92/92 99/99/99 93/93/93
f 99/99/99 100/100/100 93/93/93
f 101/101/101 99/99/99 92/92/92
f 94/94/94 101/101/101 92/92/92
f 102/102/102 101/101/101 94/94/94
f 95/95/95 102/102/102 94/94/94
f 103/103/103 102/102/102 95/95/95
f 96/96/96 103/103/103 95/95/95
f 104/104/104 103/103/103 96/96/96
f 97/97/97 104/104/104 96/96/96
f 105/105/105 104/104/104 97/97/97
f 98/98/98 105/105/105 97/97/97
f 99/99/99 106/106/106 100/100/100
f 106/106/106 107/107/107 100/100/100
f 108/108/108 106/106/106 99/99/99
f 101/101/101 108/108/108 99/99/99
f 109/109/109 108/108/108 101/101/101
f 102/102/102 109/109/109 101/101/101
f 110/110/110 109/109/109 102/102/102
f 103/103/103 110/110/110 102/102/102
f 111/111/111 110/110/110 103/103/103
f 104/104/104 111/111/111 103/103/103
f 112/112/112 111/111/111 104/104/104
f 105/105/105 112/112/112 104/104/104
f 115/115/115 114/114/114 113/113/113
f 116/116/116 115/115/115 113/113/113
f 117/117/117 115/115/115 116/116/116
f 118/118/118 117/117/117 116/116/116
f 117/117/117 119/119/119 115/115/115
f 119/119/119 120/120/120 115/115/115
f 114/114/114 115/115/115 120/120/120
f 121/121/121 114/114/114 120/120/120
f 117/117/117 118/118/118 122/122/122
f 123/123/123 117/117/117 122/122/122
f 117/117/117 123/123/123 124/124/124
f 119/119/119 117/117/117 124/124/124
f 114/114/114 121/121/121 125/125/125
f 121/121/121 126/126/126 125/125/125
f 114/114/114 125/125/125 127/127/127
f 113/113/113 114/114/114 127/127/127
f 113/113/113 127/127/127 128/128/128
f 113/113/113 128/128/128 129/129/129
f 116/116/116 113/113/113 129/129/129
f 116/116/116 129/129/129 130/130/130
f 118/118/118 116/116/116 130/130/130
f 118/118/118 130/130/130 122/122/122
f 119/119/119 124/124/124 131/131/131
f 119/119/119 131/131/131 120/120/120
f 131/131/131 132/132/132 120/120/120
f 120/120/120 132/132/132 133/133/133
f 121/121/121 120/120/120 133/133/133
f 121/121/121 133/133/133 126/126/126
f 136/136/136 135/135/135 134/134/134
f 137/137/137 136/136/136 134/134/134
f 137/137/137 138/138/138 136/136/136
f 138/138/138 139/139/139 136/136/136
f 138/138/138 140/140/140 139/139/139
f 140/140/140 141/141/141 139/139/139
f 140/140/140 142/142/142 141/141/141
f 142/142/142 143/143/143 141/141/141
f 137/137/137 134/134/134 144/144/144
f 145/145/145 137/137/137 144/144/144
f 137/137/137 145/145/145 138/138/138
f 145/145/145 146/146/146 138/138/138
f 138/138/138 146/146/146 140/140/140
f 146/146/146 147/147/147 140/140/140
f 140/140/140 147/147/147 142/142/142
f 147/147/147 148/148/148 142/142/142
