g m_prep_pineappleKebab_02
v -0.18653427 -0.07090408 0.028685732
v -0.0037790604 -0.15142225 0.015221619
v -0.011437248 -0.16342157 -0.0074600223
v -0.19308351 -0.08357024 0.0031450808
v -0.17403477 -0.07251991 -0.06671588
v -0.0025560076 -0.14712386 -0.07993335
v 0.016028091 -0.15602332 -0.0043267827
v 0.025444673 -0.14023717 -0.075467534
v -0.20088848 -0.056642655 0.009362366
v -0.1384132 0.036092844 0.03512793
v -0.12613072 0.018853445 0.05446564
v -0.18653427 -0.07090408 0.028685732
v -0.02445784 0.09797319 0.07916529
v -0.032453753 0.118548684 0.060868107
v 0.0787719 0.13572045 0.09318128
v 0.07413464 0.15747918 0.076418705
v -0.0037790604 -0.15142225 0.015221619
v 0.02151368 -0.11488866 0.025744142
v 0.077721275 -0.07227677 0.039105654
v 0.089483924 -0.08495461 0.01616321
v 0.12802815 -0.07047724 0.022333741
v 0.12110483 -0.05532043 0.045279603
v -0.19308351 -0.08357024 0.0031450808
v -0.17403477 -0.07251991 -0.06671588
v -0.18053755 -0.045818165 -0.06290186
v -0.20088848 -0.056642655 0.009362366
v -0.18653427 -0.07090408 0.028685732
v -0.15912595 -0.05162984 -0.08178046
v -0.17403477 -0.07251991 -0.06671588
v -0.0025560076 -0.14712386 -0.07993335
v 0.010332513 -0.12572527 -0.09411823
v -0.15912595 -0.05162984 -0.08178046
v 0.033434663 -0.0904412 -0.08401026
v 0.025444673 -0.14023717 -0.075467534
v 0.0468623 -0.10880699 -0.06648157
v 0.08766151 -0.048147395 -0.07081208
v 0.09651184 -0.07012449 -0.054586977
v 0.12682214 -0.033498093 -0.0654093
v 0.1320625 -0.056373417 -0.049710512
v -0.10379747 0.031494785 -0.05793042
v -0.007949807 0.10607668 -0.034647096
v 0.087852985 0.14057252 -0.021779053
v 0.14510746 -0.030803507 -0.043638613
v 0.10595436 0.145254 0.0014015504
v 0.08114863 0.15785825 0.0006855469
v -0.15912595 -0.05162984 -0.08178046
v -0.10379747 0.031494785 -0.05793042
v -0.12147393 0.04201774 -0.037832033
v -0.18053755 -0.045818165 -0.06290186
v -0.020096254 0.12090359 -0.013205689
v -0.007949807 0.10607668 -0.034647096
v 0.08114863 0.15785825 0.0006855469
v -0.1384132 0.036092844 0.03512793
v -0.20088848 -0.056642655 0.009362366
v -0.032453753 0.118548684 0.060868107
v 0.07413464 0.15747918 0.076418705
v -0.0037790604 -0.15142225 0.015221619
v 0.02151368 -0.11488866 0.025744142
v 0.038215395 -0.123914436 0.004142822
v 0.016028091 -0.15602332 -0.0043267827
v 0.089483924 -0.08495461 0.01616321
v 0.025444673 -0.14023717 -0.075467534
v 0.0468623 -0.10880699 -0.06648157
v 0.09651184 -0.07012449 -0.054586977
v 0.1320625 -0.056373417 -0.049710512
v 0.12802815 -0.07047724 0.022333741
v -0.007949807 0.10607668 -0.034647096
v 0.087852985 0.14057252 -0.021779053
v 0.08114863 0.15785825 0.0006855469
v 0.14143993 -0.046195354 0.029155092
v 0.14510746 -0.030803507 -0.043638613
v 0.1320625 -0.056373417 -0.049710512
v 0.12802815 -0.07047724 0.022333741
v 0.12110483 -0.05532043 0.045279603
v 0.12110483 -0.05532043 0.045279603
v 0.0787719 0.13572045 0.09318128
v 0.099481136 0.14404778 0.07404291
v 0.14143993 -0.046195354 0.029155092
v 0.14510746 -0.030803507 -0.043638613
v 0.10595436 0.145254 0.0014015504
v 0.07413464 0.15747918 0.076418705
v 0.08114863 0.15785825 0.0006855469
v 0.016028091 -0.15602332 -0.0043267827
v -0.011437248 -0.16342157 -0.0074600223
v -0.0037790604 -0.15142225 0.015221619
vt 0.6772461 0.6557617
vt 0.72314453 0.54296875
vt 0.70751953 0.54003906
vt 0.6611328 0.6489258
vt 0.62402344 0.6230469
vt 0.66845703 0.5214844
vt 0.71484375 0.5239258
vt 0.67041016 0.5048828
vt 0.68603516 0.21875
vt 0.72021484 0.16674805
vt 0.7060547 0.15893555
vt 0.6713867 0.21203613
vt 0.7392578 0.09472656
vt 0.75390625 0.10089111
vt 0.7578125 0.03567505
vt 0.77490234 0.04095459
vt 0.5942383 0.12042236
vt 0.609375 0.09832764
vt 0.6269531 0.058502197
vt 0.61083984 0.053009033
vt 0.61865234 0.029388428
vt 0.63427734 0.031585693
vt 0.67822266 0.23266602
vt 0.7192383 0.25463867
vt 0.7246094 0.24035645
vt 0.68603516 0.21875
vt 0.6713867 0.21203613
vt 0.73828125 0.24902344
vt 0.62402344 0.6230469
vt 0.66845703 0.5214844
vt 0.6557617 0.5131836
vt 0.609375 0.6118164
vt 0.63671875 0.4963379
vt 0.67041016 0.5048828
vt 0.6508789 0.4855957
vt 0.61279297 0.46313477
vt 0.6274414 0.45288086
vt 0.60253906 0.4404297
vt 0.6152344 0.42895508
vt 0.55810547 0.5756836
vt 0.5131836 0.51464844
vt 0.4946289 0.45483398
vt 0.5986328 0.4255371
vt 0.49121094 0.43725586
vt 0.47607422 0.44384766
vt 0.73828125 0.24902344
vt 0.77197266 0.1953125
vt 0.7573242 0.18737793
vt 0.7246094 0.24035645
vt 0.7910156 0.119628906
vt 0.80566406 0.12731934
vt 0.8173828 0.06161499
vt 0.72021484 0.16674805
vt 0.68603516 0.21875
vt 0.75390625 0.10089111
vt 0.77490234 0.04095459
vt 0.5942383 0.12042236
vt 0.609375 0.09832764
vt 0.59472656 0.089660645
vt 0.58251953 0.10992432
vt 0.61083984 0.053009033
vt 0.546875 0.089538574
vt 0.5576172 0.070129395
vt 0.57177734 0.036621094
vt 0.57910156 0.015625
vt 0.61865234 0.029388428
vt 0.80566406 0.12731934
vt 0.83154297 0.07092285
vt 0.8173828 0.06161499
vt 0.5942383 0.38208008
vt 0.5986328 0.4255371
vt 0.6152344 0.42895508
vt 0.6113281 0.37939453
vt 0.59472656 0.36547852
vt 0.59472656 0.36547852
vt 0.4716797 0.38012695
vt 0.47680664 0.39648438
vt 0.5942383 0.38208008
vt 0.5986328 0.4255371
vt 0.49121094 0.43725586
vt 0.46044922 0.39672852
vt 0.47607422 0.44384766
vt 0.71484375 0.5239258
vt 0.70751953 0.54003906
vt 0.72314453 0.54296875
vn -0.23028336 -0.34832853 0.9086456
vn -0.079686366 -0.42566574 0.901365
vn -0.34082365 -0.93880904 -0.049768418
vn -0.49691585 -0.86691254 -0.039209824
vn -0.45910653 -0.78634906 -0.413372
vn -0.31395537 -0.8342697 -0.4532395
vn 0.6201118 -0.7802051 0.08210698
vn 0.6631317 -0.70474154 -0.25218165
vn -0.9010215 0.4312217 0.04699118
vn -0.7335037 0.66833824 0.123678185
vn -0.15260969 -0.14497513 0.97759527
vn -0.23028336 -0.34832853 0.9086456
vn -0.11863219 -0.11988448 0.98567444
vn -0.51332974 0.83976483 0.17688344
vn 0.10656118 -0.08816047 0.99039006
vn -0.23524413 0.9492671 0.20869133
vn -0.079686366 -0.42566574 0.901365
vn -0.0059031695 -0.28315434 0.95905614
vn -0.013618776 -0.2910826 0.95660096
vn 0.49859908 -0.86041385 0.10529473
vn 0.58349276 -0.8103111 0.054149553
vn 0.14980845 -0.24737109 0.9572695
vn -0.49691585 -0.86691254 -0.039209824
vn -0.45910653 -0.78634906 -0.413372
vn -0.82190126 0.4745046 -0.3151567
vn -0.9010215 0.4312217 0.04699118
vn -0.23028336 -0.34832853 0.9086456
vn -0.14056522 0.10505305 -0.9844823
vn -0.45910653 -0.78634906 -0.413372
vn -0.31395537 -0.8342697 -0.4532395
vn 0.008320827 0.059394877 -0.9981998
vn -0.14056522 0.10505305 -0.9844823
vn 0.08080319 0.211525 -0.9740267
vn 0.6631317 -0.70474154 -0.25218165
vn 0.7110285 -0.6371526 -0.29744744
vn 0.07035112 0.20357627 -0.9765282
vn 0.5340881 -0.76985544 -0.3493889
vn 0.23556703 0.23785336 -0.9423024
vn 0.6059261 -0.74161166 -0.28786412
vn -0.055179987 0.33412418 -0.9409124
vn -0.02690853 0.3567418 -0.9338155
vn 0.21795626 0.3853974 -0.8966404
vn 0.97608215 0.17221485 -0.13268639
vn 0.9481915 0.3104949 -0.06727385
vn -0.18517148 0.96951026 -0.16050361
vn -0.14056522 0.10505305 -0.9844823
vn -0.055179987 0.33412418 -0.9409124
vn -0.65706545 0.70829356 -0.25804126
vn -0.82190126 0.4745046 -0.3151567
vn -0.4545212 0.86591655 -0.20880388
vn -0.02690853 0.3567418 -0.9338155
vn -0.18517148 0.96951026 -0.16050361
vn -0.7335037 0.66833824 0.123678185
vn -0.9010215 0.4312217 0.04699118
vn -0.51332974 0.83976483 0.17688344
vn -0.23524413 0.9492671 0.20869133
vn -0.079686366 -0.42566574 0.901365
vn -0.0059031695 -0.28315434 0.95905614
vn 0.6670629 -0.7281881 0.15738289
vn 0.6201118 -0.7802051 0.08210698
vn 0.49859908 -0.86041385 0.10529473
vn 0.6631317 -0.70474154 -0.25218165
vn 0.7110285 -0.6371526 -0.29744744
vn 0.5340881 -0.76985544 -0.3493889
vn 0.6059261 -0.74161166 -0.28786412
vn 0.58349276 -0.8103111 0.054149553
vn -0.02690853 0.3567418 -0.9338155
vn 0.21795626 0.3853974 -0.8966404
vn -0.18517148 0.96951026 -0.16050361
vn 0.9588586 0.07180426 0.2746531
vn 0.97608215 0.17221485 -0.13268639
vn 0.6059261 -0.74161166 -0.28786412
vn 0.58349276 -0.8103111 0.054149553
vn 0.14980845 -0.24737109 0.9572695
vn 0.14980845 -0.24737109 0.9572695
vn 0.10656118 -0.08816047 0.99039006
vn 0.91938615 0.23640175 0.31439364
vn 0.9588586 0.07180426 0.2746531
vn 0.97608215 0.17221485 -0.13268639
vn 0.9481915 0.3104949 -0.06727385
vn -0.23524413 0.9492671 0.20869133
vn -0.18517148 0.96951026 -0.16050361
vn 0.6201118 -0.7802051 0.08210698
vn -0.34082365 -0.93880904 -0.049768418
vn -0.079686366 -0.42566574 0.901365
g m_prep_pineappleKebab_02_0
f 3/3/3 2/2/2 1/1/1
f 4/4/4 3/3/3 1/1/1
f 4/4/4 5/5/5 3/3/3
f 5/5/5 6/6/6 3/3/3
f 3/3/3 6/6/6 7/7/7
f 6/6/6 8/8/8 7/7/7
f 11/11/11 10/10/10 9/9/9
f 12/12/12 11/11/11 9/9/9
f 11/11/11 13/13/13 10/10/10
f 13/13/13 14/14/14 10/10/10
f 13/13/13 15/15/15 14/14/14
f 15/15/15 16/16/16 14/14/14
f 12/12/12 17/17/17 11/11/11
f 17/17/17 18/18/18 11/11/11
f 11/11/11 18/18/18 19/19/19
f 13/13/13 11/11/11 19/19/19
f 20/20/20 19/19/19 18/18/18
f 20/20/20 21/21/21 19/19/19
f 21/21/21 22/22/22 19/19/19
f 13/13/13 19/19/19 22/22/22
f 15/15/15 13/13/13 22/22/22
f 25/25/25 24/24/24 23/23/23
f 26/26/26 25/25/25 23/23/23
f 26/26/26 23/23/23 27/27/27
f 25/25/25 28/28/28 24/24/24
f 31/31/31 30/30/30 29/29/29
f 32/32/32 31/31/31 29/29/29
f 33/33/33 31/31/31 32/32/32
f 31/31/31 33/33/33 34/34/34
f 30/30/30 31/31/31 34/34/34
f 33/33/33 35/35/35 34/34/34
f 33/33/33 36/36/36 35/35/35
f 36/36/36 37/37/37 35/35/35
f 36/36/36 38/38/38 37/37/37
f 38/38/38 39/39/39 37/37/37
f 40/40/40 33/33/33 32/32/32
f 36/36/36 33/33/33 40/40/40
f 41/41/41 36/36/36 40/40/40
f 38/38/38 36/36/36 41/41/41
f 42/42/42 38/38/38 41/41/41
f 38/38/38 42/42/42 43/43/43
f 43/43/43 39/39/39 38/38/38
f 42/42/42 44/44/44 43/43/43
f 44/44/44 42/42/42 45/45/45
f 48/48/48 47/47/47 46/46/46
f 49/49/49 48/48/48 46/46/46
f 48/48/48 50/50/50 47/47/47
f 50/50/50 51/51/51 47/47/47
f 50/50/50 52/52/52 51/51/51
f 53/53/53 48/48/48 49/49/49
f 48/48/48 53/53/53 50/50/50
f 54/54/54 53/53/53 49/49/49
f 53/53/53 55/55/55 50/50/50
f 52/52/52 50/50/50 55/55/55
f 56/56/56 52/52/52 55/55/55
f 59/59/59 58/58/58 57/57/57
f 60/60/60 59/59/59 57/57/57
f 59/59/59 61/61/61 58/58/58
f 60/60/60 62/62/62 59/59/59
f 62/62/62 63/63/63 59/59/59
f 59/59/59 63/63/63 61/61/61
f 63/63/63 64/64/64 61/61/61
f 61/61/61 64/64/64 65/65/65
f 66/66/66 61/61/61 65/65/65
f 69/69/69 68/68/68 67/67/67
f 72/72/72 71/71/71 70/70/70
f 73/73/73 72/72/72 70/70/70
f 74/74/74 73/73/73 70/70/70
f 77/77/77 76/76/76 75/75/75
f 78/78/78 77/77/77 75/75/75
f 77/77/77 78/78/78 79/79/79
f 80/80/80 77/77/77 79/79/79
f 77/77/77 80/80/80 81/81/81
f 76/76/76 77/77/77 81/81/81
f 80/80/80 82/82/82 81/81/81
f 85/85/85 84/84/84 83/83/83
