g Pizza_Tomato_Raw
v 23.789118 6.549718 -6.37427
v -2.2888185E-06 6.549718 0
v 21.328743 6.549718 -12.314154
v 17.414845 6.549718 -17.414843
v 12.314152 6.549718 -21.328741
v 6.374277 6.549718 -23.789118
v 2.9483804E-06 6.549718 -24.628307
v -6.3742723 6.549718 -23.78913
v -12.314157 6.549718 -21.328741
v -17.414848 6.549718 -17.414848
v -21.328747 6.549718 -12.314159
v -23.789135 6.549718 -6.3742766
v -24.628315 6.549718 -1.3191233E-06
v -23.789135 6.549718 6.374279
v -21.328747 6.549718 12.314154
v -17.414848 6.549718 17.41485
v -12.314162 6.549718 21.328743
v -6.374277 6.549718 23.789127
v 34.078373 5.0807505 -19.118876
v 27.359343 5.0807505 -28.322842
v 19.118874 5.0807505 -34.399536
v 9.896666 5.0807505 -37.577164
v 6.866455E-06 5.0807505 -38.880085
v -9.896651 5.0807505 -37.577183
v -19.761213 5.0807505 -33.7572
v -27.680515 5.0807505 -27.680513
v -32.793705 5.0807505 -19.440052
v -36.61367 5.0807505 -10.217827
v -38.23774 5.0807505 0
v -37.57717 5.0807505 9.5755
v -34.078358 5.0807505 19.118876
v -27.038158 5.0807505 27.680523
v -19.118866 5.0807505 33.757206
v -9.89664 5.0807505 35.97134
v -2.9483804E-06 6.549718 24.628317
v 6.374277 6.549718 23.789133
v 12.314157 6.549718 21.32875
v 17.414848 6.549718 17.414856
v 21.328756 6.549718 12.314163
v 23.789131 6.549718 6.374279
v 24.628315 6.549718 -1.3191233E-06
v 1.8310548E-05 5.0807505 37.274265
v 9.896686 5.0807505 35.97135
v 19.118902 5.0807505 33.11488
v 26.717037 5.0807505 27.359364
v 33.436073 5.0807505 19.44006
v 37.57721 5.0807505 9.8966675
v 38.237766 5.0807505 0
v 37.57717 5.0807505 -9.896649
vt 0.7379726 0.55390984
vt 0.49999997 0.48029
vt 0.7133602 0.61332923
vt 0.67420805 0.66435295
vt 0.6231836 0.703505
vt 0.56376445 0.72811747
vt 0.49999997 0.7365119
vt 0.4362354 0.72811747
vt 0.3768163 0.703505
vt 0.3257919 0.66435295
vt 0.28663975 0.6133286
vt 0.2620275 0.55390984
vt 0.2536326 0.4901452
vt 0.2620275 0.4263806
vt 0.28663975 0.36696112
vt 0.32579204 0.31593674
vt 0.3768163 0.2767846
vt 0.4362354 0.2521722
vt 0.9267211 0.74636704
vt 0.8484165 0.84841585
vt 0.7463673 0.9267199
vt 0.627529 0.975945
vt 0.49999997 0.99273515
vt 0.37247083 0.975945
vt 0.2536326 0.9267199
vt 0.15158394 0.84841585
vt 0.07327923 0.74636704
vt 0.024055034 0.62752956
vt 0.007265389 0.50000036
vt 0.024055034 0.37247056
vt 0.07327923 0.2536323
vt 0.15158418 0.15158346
vt 0.25363296 0.07327932
vt 0.37247103 0.024054378
vt 0.49999997 0.24377784
vt 0.56376445 0.2521722
vt 0.6231836 0.2767846
vt 0.6742077 0.31593674
vt 0.7133602 0.36696112
vt 0.7379726 0.4263806
vt 0.7463673 0.49014446
vt 0.49999997 0.007264912
vt 0.627529 0.024054378
vt 0.7463673 0.07327932
vt 0.84841573 0.15158346
vt 0.9267207 0.2536323
vt 0.9759448 0.37247056
vt 0.9927346 0.50000036
vt 0.9759448 0.62752956
vn 0.063684806 0.99785465 -0.0151776085
vn -0 1 0
vn 0.057198774 0.9978369 -0.0324027
vn 0.046700936 0.9978619 -0.045723718
vn 0.031079244 0.99793625 -0.056190502
vn 0.01566196 0.99788636 -0.063068226
vn -0 0.99786025 -0.06538282
vn -0.016753856 0.9978358 -0.06358423
vn -0.032002386 0.99786866 -0.05686815
vn -0.04714518 0.9978941 -0.044549376
vn -0.05909934 0.997752 -0.03159225
vn -0.06573487 0.9976756 -0.017950669
vn -0.06710868 0.9977437 -0.0019869902
vn -0.06377775 0.9978466 0.015316777
vn -0.057075124 0.9978126 0.033352237
vn -0.046845578 0.99778324 0.047265902
vn -0.030569732 0.9978248 0.0584064
vn -0.014580039 0.9976095 0.06754728
vn 0.088196404 0.9948678 -0.049593806
vn 0.0706396 0.9950145 -0.070399776
vn 0.04792401 0.9950128 -0.087479174
vn 0.02460905 0.9948013 -0.09881719
vn -0 0.99473 -0.10252939
vn -0.025991518 0.99474925 -0.09898608
vn -0.04999457 0.99486405 -0.08801186
vn -0.073722005 0.994786 -0.07046874
vn -0.093793266 0.99428236 -0.05104444
vn -0.10472494 0.99407864 -0.028988466
vn -0.10678511 0.9942782 -0.0027699785
vn -0.10062402 0.99463356 0.02406076
vn -0.08859426 0.99475986 0.051026925
vn -0.07249158 0.9946451 0.07366307
vn -0.049263455 0.9944464 0.093002126
vn -0.024442034 0.99364966 0.109831855
vn -0 0.9975188 0.07040029
vn 0.015979351 0.99757797 0.06769743
vn 0.03179606 0.9977448 0.059111994
vn 0.04683785 0.9977513 0.047942705
vn 0.057130933 0.9977708 0.03448998
vn 0.0640109 0.9978144 0.016403707
vn 0.0665364 0.9977841 0
vn -0 0.99332076 0.11538527
vn 0.02671816 0.99353325 0.11035322
vn 0.051986296 0.99408275 0.095377445
vn 0.07427534 0.9943032 0.0764482
vn 0.0895212 0.99452907 0.053832322
vn 0.10056365 0.99459606 0.02580037
vn 0.10538755 0.9944312 0
vn 0.1002689 0.9946668 -0.024167335
g Pizza_Tomato_Raw_0
f 3/3/3 2/2/2 1/1/1
f 4/4/4 2/2/2 3/3/3
f 5/5/5 2/2/2 4/4/4
f 6/6/6 2/2/2 5/5/5
f 7/7/7 2/2/2 6/6/6
f 8/8/8 2/2/2 7/7/7
f 9/9/9 2/2/2 8/8/8
f 10/10/10 2/2/2 9/9/9
f 11/11/11 2/2/2 10/10/10
f 12/12/12 2/2/2 11/11/11
f 13/13/13 2/2/2 12/12/12
f 14/14/14 2/2/2 13/13/13
f 15/15/15 2/2/2 14/14/14
f 16/16/16 2/2/2 15/15/15
f 17/17/17 2/2/2 16/16/16
f 18/18/18 2/2/2 17/17/17
f 4/4/4 3/3/3 19/19/19
f 20/20/20 4/4/4 19/19/19
f 5/5/5 4/4/4 20/20/20
f 21/21/21 5/5/5 20/20/20
f 6/6/6 5/5/5 21/21/21
f 22/22/22 6/6/6 21/21/21
f 7/7/7 6/6/6 22/22/22
f 23/23/23 7/7/7 22/22/22
f 8/8/8 7/7/7 23/23/23
f 24/24/24 8/8/8 23/23/23
f 9/9/9 8/8/8 24/24/24
f 25/25/25 9/9/9 24/24/24
f 10/10/10 9/9/9 25/25/25
f 26/26/26 10/10/10 25/25/25
f 11/11/11 10/10/10 26/26/26
f 27/27/27 11/11/11 26/26/26
f 12/12/12 11/11/11 27/27/27
f 28/28/28 12/12/12 27/27/27
f 13/13/13 12/12/12 28/28/28
f 29/29/29 13/13/13 28/28/28
f 14/14/14 13/13/13 29/29/29
f 30/30/30 14/14/14 29/29/29
f 15/15/15 14/14/14 30/30/30
f 31/31/31 15/15/15 30/30/30
f 16/16/16 15/15/15 31/31/31
f 32/32/32 16/16/16 31/31/31
f 17/17/17 16/16/16 32/32/32
f 33/33/33 17/17/17 32/32/32
f 18/18/18 17/17/17 33/33/33
f 34/34/34 18/18/18 33/33/33
f 35/35/35 18/18/18 34/34/34
f 35/35/35 2/2/2 18/18/18
f 36/36/36 2/2/2 35/35/35
f 37/37/37 2/2/2 36/36/36
f 38/38/38 2/2/2 37/37/37
f 39/39/39 2/2/2 38/38/38
f 40/40/40 2/2/2 39/39/39
f 41/41/41 2/2/2 40/40/40
f 1/1/1 2/2/2 41/41/41
f 42/42/42 35/35/35 34/34/34
f 36/36/36 35/35/35 42/42/42
f 43/43/43 36/36/36 42/42/42
f 37/37/37 36/36/36 43/43/43
f 44/44/44 37/37/37 43/43/43
f 38/38/38 37/37/37 44/44/44
f 45/45/45 38/38/38 44/44/44
f 39/39/39 38/38/38 45/45/45
f 46/46/46 39/39/39 45/45/45
f 40/40/40 39/39/39 46/46/46
f 47/47/47 40/40/40 46/46/46
f 41/41/41 40/40/40 47/47/47
f 48/48/48 41/41/41 47/47/47
f 1/1/1 41/41/41 48/48/48
f 49/49/49 1/1/1 48/48/48
f 3/3/3 1/1/1 49/49/49
f 19/19/19 3/3/3 49/49/49
